<svg width="16" height="16" viewBox="0 0 16 16" fill="none" xmlns="http://www.w3.org/2000/svg">
<g clip-path="url(#clip0_15211_70360)">
<path d="M3.53857 8.81239C6.37541 9.01909 8.04636 10.9207 8.36856 14.786C8.53567 11.2774 10.0732 9.21089 13.1985 8.81239C10.3617 8.60572 8.69075 6.70413 8.36856 2.83887C8.20142 6.34734 6.6639 8.41388 3.53857 8.81239Z" fill="white"/>
<path d="M13.1985 3.91029C13.2592 2.87985 13.8178 2.2729 14.953 2.15585C13.9226 2.09515 13.3156 1.53663 13.1985 0.401367C13.1378 1.43185 12.5794 2.03881 11.4441 2.15585C12.4745 2.21655 13.0815 2.77507 13.1985 3.91029Z" fill="white"/>
<path d="M1.04736 4.18901C2.07782 4.24976 2.6848 4.80823 2.8018 5.94349C2.86255 4.91301 3.42102 4.30608 4.55629 4.18901C3.5258 4.12833 2.91885 3.56984 2.8018 2.43457C2.7411 3.46503 2.18261 4.07201 1.04736 4.18901Z" fill="white"/>
<path d="M2.80185 12.0928C2.74115 13.1232 2.18261 13.7302 1.04736 13.8473C2.0778 13.9079 2.68478 14.4664 2.80185 15.6017C2.86253 14.5712 3.42102 13.9643 4.55629 13.8473C3.5258 13.7865 2.91889 13.228 2.80185 12.0928Z" fill="white"/>
</g>
<defs>
<clipPath id="clip0_15211_70360">
<rect width="16" height="16" fill="white" transform="translate(0 0.000976562)"/>
</clipPath>
</defs>
</svg>
